<?xml version="1.0" encoding="utf-8"?>
<svg xmlns="http://www.w3.org/2000/svg" xmlns:xlink="http://www.w3.org/1999/xlink"><symbol viewBox="-1 -1 502 502" id="icon-fnb-deliver" xmlns="http://www.w3.org/2000/svg"><path d="M466 420.5H41.5v-224H139V320h229.5V196.5H466v224zM44 418h419.5V199H371v124H136.5V199H44v219zm315.5 2.5h2.5v67h-2.5zm-214 0h2.5v67h-2.5z" stroke="#000" stroke-width=".77" stroke-miterlimit="10"/><path stroke="#000" stroke-width=".77" stroke-miterlimit="10" d="M254 14c101.5 0 184 82.5 184 184h2c0-103-83.5-186.5-186-186.5S67.5 95 67.5 198H70C70 96 152 14 254 14z"/></symbol><symbol viewBox="-1 -1 502 502" id="icon-fnb-pickup" xmlns="http://www.w3.org/2000/svg"><path d="M228.5 54.5A28.7 28.7 0 00201 35c-16 0-28.5 13-28.5 28.5V66c-4-1.5-8.5-2.5-13-2.5-18.5 0-33 15-33 33 0 4 .5 8 2 11.5-13 2-23 13.5-23 27.5v2.5H415v-2.5c0-12.5-9-22.5-21-24v-2c0-10-6-18.5-14.5-22 .5-2 .5-4.5.5-6.5 0-19-15.5-34.5-34.5-34.5H344C338.5 25 318.5 9 295 9c-25.5 0-47 19-50 44-1.5 0-3-.5-4.5-.5-4-.5-8.5.5-12 2zM105.5 159H413l-35 238-231 39z" fill="none" stroke="#000" stroke-width="1.3" stroke-miterlimit="10"/><path fill="#FFF" stroke="#000" stroke-width="1.56" stroke-miterlimit="10" d="M437.5 320c-25.5 1.5-59 27-91 41.5-39.5 18-101 3.5-101 3.5 9.5-4.5 48-13.5 56-17 41-18 38-56 18-55.5-26 .5-41 7-93 14-39.5 5.5-85.5 3.5-108 12C87 330 36 411 36 411l78.5 76s48.5-47.5 72-47.5c53.5 0 56-.5 106-3.5 21-1 25.5-2 38-6 64.5-22 134-80 135.5-87 2.5-17-15.5-24-28.5-23z"/></symbol><symbol viewBox="-1 -1 102 102" id="icon-resend" xmlns="http://www.w3.org/2000/svg"><path d="M50 95C25.2 95 5 74.8 5 50 5 27.9 21.1 9.1 42.7 5.6v8.8c-16.9 3.4-29 18.2-29 35.5C13.7 70 30 86.3 50 86.3S86.3 70 86.3 50c0-8.5-3.1-16.8-8.6-23.4l-1-1.2-9.2 9.2-.6.7c-.8.9-1.6 1.7-2.3 1.7-.8 0-1.5-.7-1.5-1.5v-29c0-.5 0-1.5 1.5-1.5h29c.8 0 1.4.7 1.4 1.5 0 .7-1.1 1.8-2.1 2.7l-.8.8-9.3 9.3.9 1A44.7 44.7 0 0195 50c0 24.8-20.2 45-45 45z"/></symbol><symbol viewBox="-1 -1 262 22" id="icon-screen" xmlns="http://www.w3.org/2000/svg"><defs><path id="da" d="M27.1 0h205.8L260 14.02H0z"/><path id="db" d="M0 13.88h260l-3.44 6.06H3.44z"/></defs><g fill="none" fill-rule="evenodd" opacity=".3"><use fill="#E1E8F1" xlink:href="#da"/><path stroke="#4F91FF" stroke-width=".65" d="M27.19.33L1.34 13.7h257.32L232.81.32H27.2z"/><path fill="#8FB9FF" d="M28.16 2.97h203.86l17.95 9.14H10.35z"/><use fill="#E3ECFA" xlink:href="#db"/><path stroke="#4F91FF" stroke-width=".65" d="M.56 14.2l3.07 5.41h252.74l3.07-5.4H.56z"/></g></symbol><symbol viewBox="-388 490 26 22" id="icon-seat" xmlns="http://www.w3.org/2000/svg"><path fill="#464646" d="M-363.7 507.4c0 .3-.2.5-.5.5h-21.7c-.3 0-.5-.2-.5-.5v-10.5c0-.3.2-.5.5-.5h1.4s.1 0 .1.1v8.3c0 .6.5 1 1.1 1h16.5c.6 0 1-.5 1-1v-8.4l.1-.1h1.4c.3 0 .5.2.5.5l.1 10.6zm-2.6 3.1h-.5v-2h.5v2zm-17.1 0h-.5v-2h.5v2zm1.5-10.1h-2v-3.8l1 .6v1.2c.1.9.4 1.6 1 2zm-.4-6.8c0-1.1.9-2 2-2h10.5a2 2 0 012 2v4.9a2 2 0 01-2 2h-10.5a2 2 0 01-2-2v-4.9zm16 3.1v3.8h-2c.6-.4 1-1.2 1-2v-1.2l1-.6zm-17.5 5.3v-.9s0-.1.1-.1h17.3c.1 0 .1 0 .1.1v3.6c0 .3-.2.5-.5.5h-16.5c-.3 0-.5-.2-.5-.5V502zm15 7.1h-.2v-.7h.2v.7zm-12.3 0h-.2v-.7h.2v.7zm16.9-13.3h-1.4c-.1 0-.2 0-.3.1l-1.3.8v-3.1c0-1.4-1.1-2.5-2.5-2.5h-10.5c-1.4 0-2.5 1.1-2.5 2.5v3.1l-1.3-.8c-.1 0-.2-.1-.3-.1h-1.4a1 1 0 00-1 1v10.5c0 .6.5 1 1 1h1.5v2.3c0 .2.1.3.3.3h1c.2 0 .3-.1.3-.3v-2.3h1v.9c0 .2.1.3.3.3h.6c.2 0 .4-.1.4-.3v-.9h11v.9c0 .2.1.3.4.3h.6c.2 0 .3-.1.3-.3v-.9h1v2.3c0 .2.1.3.3.3h1c.2 0 .3-.1.3-.3v-2.3h1.5c.6 0 1-.5 1-1v-10.5c-.3-.6-.8-1-1.3-1z"/><path fill="none" d="M-363.7 507.4c0 .3-.2.5-.5.5h-21.7c-.3 0-.5-.2-.5-.5v-10.5c0-.3.2-.5.5-.5h1.4s.1 0 .1.1v8.3c0 .6.5 1 1.1 1h16.5c.6 0 1-.5 1-1v-8.4l.1-.1h1.4c.3 0 .5.2.5.5l.1 10.6zm-2.6 3.1h-.5v-2h.5v2zm-17.1 0h-.5v-2h.5v2zm1.5-10.1h-2v-3.8l1 .6v1.2c.1.9.4 1.6 1 2zm-.4-6.8c0-1.1.9-2 2-2h10.5a2 2 0 012 2v4.9a2 2 0 01-2 2h-10.5a2 2 0 01-2-2v-4.9zm16 3.1v3.8h-2c.6-.4 1-1.2 1-2v-1.2l1-.6zm-17.5 5.3v-.9s0-.1.1-.1h17.3c.1 0 .1 0 .1.1v3.6c0 .3-.2.5-.5.5h-16.5c-.3 0-.5-.2-.5-.5V502zm15 7.1h-.2v-.7h.2v.7zm-12.3 0h-.2v-.7h.2v.7zm16.9-13.3h-1.4c-.1 0-.2 0-.3.1l-1.3.8v-3.1c0-1.4-1.1-2.5-2.5-2.5h-10.5c-1.4 0-2.5 1.1-2.5 2.5v3.1l-1.3-.8c-.1 0-.2-.1-.3-.1h-1.4a1 1 0 00-1 1v10.5c0 .6.5 1 1 1h1.5v2.3c0 .2.1.3.3.3h1c.2 0 .3-.1.3-.3v-2.3h1v.9c0 .2.1.3.3.3h.6c.2 0 .4-.1.4-.3v-.9h11v.9c0 .2.1.3.4.3h.6c.2 0 .3-.1.3-.3v-.9h1v2.3c0 .2.1.3.3.3h1c.2 0 .3-.1.3-.3v-2.3h1.5c.6 0 1-.5 1-1v-10.5c-.3-.6-.8-1-1.3-1z"/></symbol><symbol viewBox="-348 238 102 127" id="icon-zoom_in" xmlns="http://www.w3.org/2000/svg"><path d="M-252.6 335.6l-26.6-26.6c3.3-5.2 5.2-11.4 5.2-18 0-18.7-15.3-34-34-34s-34 15.3-34 34 15.3 34 34 34c6.6 0 12.8-1.9 18-5.2l26.6 26.6c.4.4.9.6 1.4.6s1-.2 1.4-.6l8-8c.8-.8.8-2 0-2.8zM-338 291c0-16.5 13.5-30 30-30s30 13.5 30 30-13.5 30-30 30-30-13.5-30-30zm56.5 21.3l18.7 18.7-5.2 5.2-18.7-18.7c1.9-1.6 3.6-3.3 5.2-5.2zm19.5 29.9l-3.2-3.2 5.2-5.2 3.2 3.2-5.2 5.2zm-24-51.2a2 2 0 01-2 2h-18v18c0 1.1-.9 2-2 2s-2-.9-2-2v-18h-18c-1.1 0-2-.9-2-2s.9-2 2-2h18v-18c0-1.1.9-2 2-2s2 .9 2 2v18h18a2 2 0 012 2z"/></symbol><symbol viewBox="-348 238 102 127" id="icon-zoom_out" xmlns="http://www.w3.org/2000/svg"><path d="M-252.6 335.6l-26.6-26.6c3.3-5.2 5.2-11.4 5.2-18 0-18.7-15.3-34-34-34s-34 15.3-34 34 15.3 34 34 34c6.6 0 12.8-1.9 18-5.2l26.6 26.6c.4.4.9.6 1.4.6s1-.2 1.4-.6l8-8c.8-.8.8-2 0-2.8zM-338 291c0-16.5 13.5-30 30-30s30 13.5 30 30-13.5 30-30 30-30-13.5-30-30zm56.5 21.3l18.7 18.7-5.2 5.2-18.7-18.7c1.9-1.6 3.6-3.3 5.2-5.2zm19.5 29.9l-3.2-3.2 5.2-5.2 3.2 3.2-5.2 5.2zm-38-49.2h-28c-1.1 0-2-.9-2-2s.9-2 2-2h28m-6 0h18c1.1 0 2 .9 2 2s-.9 2-2 2h-18"/></symbol></svg>